<svg xmlns="http://www.w3.org/2000/svg" width="1024" height="1024" viewBox="0 0 1024 1024" role="img" aria-label="I-THREAD Lab app icon">
  <defs>
    <style>
      .blue{fill:none;stroke:#2d43a5;stroke-width:30;stroke-linecap:round;stroke-linejoin:round}
      .txt{font-family:'Arial Rounded MT Bold','Trebuchet MS','DejaVu Sans',Arial,sans-serif;font-weight:700;letter-spacing:1px}
    </style>
    <clipPath id="clipCircle"><circle cx="512" cy="512" r="430"/></clipPath>
  </defs>
  <rect width="1024" height="1024" fill="#292929"/>
  <circle cx="512" cy="512" r="430" fill="#fff"/>
  <g clip-path="url(#clipCircle)">
    <g transform="translate(0,-6)">
      <circle cx="512" cy="286" r="48" fill="#ec0a91"/>
      <circle cx="512" cy="682" r="38" fill="#2d43a5"/>
      <path class="blue" d="M394 318 C394 398 630 400 630 478 C630 555 394 555 394 642"/>
      <path class="blue" d="M630 318 C630 398 394 400 394 478 C394 555 630 555 630 642"/>
      <path class="blue" d="M434 350 C472 386 552 386 590 350"/>
      <path class="blue" d="M434 606 C472 570 552 570 590 606"/>
    </g>
    <text x="171" y="839" class="txt" font-size="72"><tspan fill="#5860b8">I-THREAD </tspan><tspan fill="#ec0a91">Lab</tspan></text>
  </g>
</svg>
